<?xml version="1.0" encoding="UTF-8"?>
<svg height="13" version="1.1" viewBox="0 0 13 13" width="13" xmlns="http://www.w3.org/2000/svg">
  <g id="surface1">
    <path style=" stroke:none;fill-rule:nonzero;fill:rgb(0%,0%,0%);fill-opacity:1;"
          d="M 11.917969 9.207031 L 9.75 9.207031 L 9.75 5.417969 L 11.917969 5.417969 M 12.457031 4.332031 L 9.207031 4.332031 C 8.910156 4.332031 8.667969 4.574219 8.667969 4.875 L 8.667969 10.292969 C 8.667969 10.589844 8.910156 10.832031 9.207031 10.832031 L 12.457031 10.832031 C 12.757812 10.832031 13 10.589844 13 10.292969 L 13 4.875 C 13 4.574219 12.757812 4.332031 12.457031 4.332031 M 2.167969 3.25 L 11.917969 3.25 L 11.917969 2.167969 L 2.167969 2.167969 C 1.566406 2.167969 1.082031 2.652344 1.082031 3.25 L 1.082031 9.207031 L 0 9.207031 L 0 10.832031 L 7.582031 10.832031 L 7.582031 9.207031 L 2.167969 9.207031 Z M 2.167969 3.25 "/>
  </g>
</svg>
